<mxfile host="Electron" modified="2023-08-15T16:45:26.843Z" agent="Mozilla/5.0 (Macintosh; Intel Mac OS X 10_15_7) AppleWebKit/537.36 (KHTML, like Gecko) draw.io/21.6.1 Chrome/112.0.5615.204 Electron/24.6.1 Safari/537.36" etag="DOxjXknOa98ebdmb9GnR" version="21.6.1" type="device">
  <diagram name="Page-1" id="G7OkB85RAKckw4P4_BAa">
    <mxGraphModel dx="795" dy="606" grid="1" gridSize="10" guides="1" tooltips="1" connect="1" arrows="1" fold="1" page="1" pageScale="1" pageWidth="1100" pageHeight="850" math="0" shadow="0">
      <root>
        <mxCell id="0" />
        <mxCell id="1" parent="0" />
        <mxCell id="OTa4afvTashq3EoKjt3z-47" value="" style="group;movable=0;resizable=0;rotatable=0;deletable=0;editable=0;locked=1;connectable=0;" vertex="1" connectable="0" parent="1">
          <mxGeometry x="330" y="160" width="430" height="410" as="geometry" />
        </mxCell>
        <mxCell id="OTa4afvTashq3EoKjt3z-2" value="&lt;font style=&quot;font-size: 16px;&quot;&gt;The Federation&lt;/font&gt;" style="fillColor=#f8cecc;strokeColor=#b85450;dashed=0;verticalAlign=top;fontStyle=0;whiteSpace=wrap;html=1;align=center;" vertex="1" parent="OTa4afvTashq3EoKjt3z-47">
          <mxGeometry width="430" height="410" as="geometry" />
        </mxCell>
        <mxCell id="OTa4afvTashq3EoKjt3z-3" value="" style="sketch=0;points=[[0,0,0],[0.25,0,0],[0.5,0,0],[0.75,0,0],[1,0,0],[0,1,0],[0.25,1,0],[0.5,1,0],[0.75,1,0],[1,1,0],[0,0.25,0],[0,0.5,0],[0,0.75,0],[1,0.25,0],[1,0.5,0],[1,0.75,0]];points=[[0,0,0],[0.25,0,0],[0.5,0,0],[0.75,0,0],[1,0,0],[0,1,0],[0.25,1,0],[0.5,1,0],[0.75,1,0],[1,1,0],[0,0.25,0],[0,0.5,0],[0,0.75,0],[1,0.25,0],[1,0.5,0],[1,0.75,0]];outlineConnect=0;fontColor=#232F3E;gradientColor=#F34482;gradientDirection=north;fillColor=#BC1356;strokeColor=#ffffff;dashed=0;verticalLabelPosition=bottom;verticalAlign=top;align=center;html=1;fontSize=12;fontStyle=0;aspect=fixed;shape=mxgraph.aws4.resourceIcon;resIcon=mxgraph.aws4.organizations;" vertex="1" parent="OTa4afvTashq3EoKjt3z-47">
          <mxGeometry width="60" height="60" as="geometry" />
        </mxCell>
        <mxCell id="OTa4afvTashq3EoKjt3z-6" value="" style="group" vertex="1" connectable="0" parent="1">
          <mxGeometry x="460" y="210" width="180" height="70" as="geometry" />
        </mxCell>
        <mxCell id="OTa4afvTashq3EoKjt3z-4" value="Master Account" style="fillColor=#EFF0F3;strokeColor=none;dashed=0;verticalAlign=top;fontStyle=0;fontColor=#232F3D;whiteSpace=wrap;html=1;" vertex="1" parent="OTa4afvTashq3EoKjt3z-6">
          <mxGeometry width="180" height="70" as="geometry" />
        </mxCell>
        <mxCell id="OTa4afvTashq3EoKjt3z-5" value="" style="sketch=0;outlineConnect=0;fontColor=#232F3E;gradientColor=none;fillColor=#BF0816;strokeColor=none;dashed=0;verticalLabelPosition=bottom;verticalAlign=top;align=center;html=1;fontSize=12;fontStyle=0;aspect=fixed;pointerEvents=1;shape=mxgraph.aws4.organizations_account;" vertex="1" parent="OTa4afvTashq3EoKjt3z-6">
          <mxGeometry x="17" y="20" width="37.95" height="40" as="geometry" />
        </mxCell>
        <mxCell id="OTa4afvTashq3EoKjt3z-7" value="Starfleet" style="points=[[0,0],[0.25,0],[0.5,0],[0.75,0],[1,0],[1,0.25],[1,0.5],[1,0.75],[1,1],[0.75,1],[0.5,1],[0.25,1],[0,1],[0,0.75],[0,0.5],[0,0.25]];outlineConnect=0;gradientColor=none;html=1;whiteSpace=wrap;fontSize=12;fontStyle=0;container=1;pointerEvents=0;collapsible=0;recursiveResize=0;shape=mxgraph.aws4.group;grIcon=mxgraph.aws4.group_account;strokeColor=#CD2264;fillColor=none;verticalAlign=top;align=left;spacingLeft=30;fontColor=#CD2264;dashed=0;" vertex="1" parent="1">
          <mxGeometry x="370" y="305" width="160" height="240" as="geometry" />
        </mxCell>
        <mxCell id="OTa4afvTashq3EoKjt3z-8" value="Federation Planets" style="points=[[0,0],[0.25,0],[0.5,0],[0.75,0],[1,0],[1,0.25],[1,0.5],[1,0.75],[1,1],[0.75,1],[0.5,1],[0.25,1],[0,1],[0,0.75],[0,0.5],[0,0.25]];outlineConnect=0;gradientColor=none;html=1;whiteSpace=wrap;fontSize=12;fontStyle=0;container=1;pointerEvents=0;collapsible=0;recursiveResize=0;shape=mxgraph.aws4.group;grIcon=mxgraph.aws4.group_account;strokeColor=#CD2264;fillColor=none;verticalAlign=top;align=left;spacingLeft=30;fontColor=#CD2264;dashed=0;" vertex="1" parent="1">
          <mxGeometry x="570" y="305" width="160" height="240" as="geometry" />
        </mxCell>
        <mxCell id="OTa4afvTashq3EoKjt3z-9" value="Section 31" style="fillColor=#EFF0F3;strokeColor=none;dashed=0;verticalAlign=top;fontStyle=0;fontColor=#232F3D;whiteSpace=wrap;html=1;" vertex="1" parent="1">
          <mxGeometry x="385" y="345" width="130" height="55" as="geometry" />
        </mxCell>
        <mxCell id="OTa4afvTashq3EoKjt3z-10" value="Corps of Engineers" style="fillColor=#EFF0F3;strokeColor=none;dashed=0;verticalAlign=top;fontStyle=0;fontColor=#232F3D;whiteSpace=wrap;html=1;" vertex="1" parent="1">
          <mxGeometry x="385" y="415" width="130" height="55" as="geometry" />
        </mxCell>
        <mxCell id="OTa4afvTashq3EoKjt3z-11" value="Starfleet Command" style="fillColor=#EFF0F3;strokeColor=none;dashed=0;verticalAlign=top;fontStyle=0;fontColor=#232F3D;whiteSpace=wrap;html=1;" vertex="1" parent="1">
          <mxGeometry x="385" y="485" width="130" height="55" as="geometry" />
        </mxCell>
        <mxCell id="OTa4afvTashq3EoKjt3z-12" value="Earth" style="fillColor=#EFF0F3;strokeColor=none;dashed=0;verticalAlign=top;fontStyle=0;fontColor=#232F3D;whiteSpace=wrap;html=1;" vertex="1" parent="1">
          <mxGeometry x="585" y="345" width="130" height="55" as="geometry" />
        </mxCell>
        <mxCell id="OTa4afvTashq3EoKjt3z-13" value="Vulcan" style="fillColor=#EFF0F3;strokeColor=none;dashed=0;verticalAlign=top;fontStyle=0;fontColor=#232F3D;whiteSpace=wrap;html=1;" vertex="1" parent="1">
          <mxGeometry x="585" y="415" width="130" height="55" as="geometry" />
        </mxCell>
        <mxCell id="OTa4afvTashq3EoKjt3z-14" value="Betazed" style="fillColor=#EFF0F3;strokeColor=none;dashed=0;verticalAlign=top;fontStyle=0;fontColor=#232F3D;whiteSpace=wrap;html=1;" vertex="1" parent="1">
          <mxGeometry x="585" y="485" width="130" height="55" as="geometry" />
        </mxCell>
        <mxCell id="OTa4afvTashq3EoKjt3z-15" value="" style="sketch=0;outlineConnect=0;fontColor=#232F3E;gradientColor=none;fillColor=#BF0816;strokeColor=none;dashed=0;verticalLabelPosition=bottom;verticalAlign=top;align=center;html=1;fontSize=12;fontStyle=0;aspect=fixed;pointerEvents=1;shape=mxgraph.aws4.organizations_account;" vertex="1" parent="1">
          <mxGeometry x="390" y="370" width="28.46" height="30" as="geometry" />
        </mxCell>
        <mxCell id="OTa4afvTashq3EoKjt3z-16" value="" style="sketch=0;outlineConnect=0;fontColor=#232F3E;gradientColor=none;fillColor=#BF0816;strokeColor=none;dashed=0;verticalLabelPosition=bottom;verticalAlign=top;align=center;html=1;fontSize=12;fontStyle=0;aspect=fixed;pointerEvents=1;shape=mxgraph.aws4.organizations_account;" vertex="1" parent="1">
          <mxGeometry x="390" y="440" width="28.46" height="30" as="geometry" />
        </mxCell>
        <mxCell id="OTa4afvTashq3EoKjt3z-17" value="" style="sketch=0;outlineConnect=0;fontColor=#232F3E;gradientColor=none;fillColor=#BF0816;strokeColor=none;dashed=0;verticalLabelPosition=bottom;verticalAlign=top;align=center;html=1;fontSize=12;fontStyle=0;aspect=fixed;pointerEvents=1;shape=mxgraph.aws4.organizations_account;" vertex="1" parent="1">
          <mxGeometry x="390" y="510" width="28.46" height="30" as="geometry" />
        </mxCell>
        <mxCell id="OTa4afvTashq3EoKjt3z-18" value="" style="sketch=0;outlineConnect=0;fontColor=#232F3E;gradientColor=none;fillColor=#232F3D;strokeColor=none;dashed=0;verticalLabelPosition=bottom;verticalAlign=top;align=center;html=1;fontSize=12;fontStyle=0;aspect=fixed;pointerEvents=1;shape=mxgraph.aws4.user;" vertex="1" parent="1">
          <mxGeometry x="425.46" y="371" width="21.5" height="21.5" as="geometry" />
        </mxCell>
        <mxCell id="OTa4afvTashq3EoKjt3z-19" value="" style="sketch=0;outlineConnect=0;fontColor=#232F3E;gradientColor=none;fillColor=#232F3D;strokeColor=none;dashed=0;verticalLabelPosition=bottom;verticalAlign=top;align=center;html=1;fontSize=12;fontStyle=0;aspect=fixed;pointerEvents=1;shape=mxgraph.aws4.user;" vertex="1" parent="1">
          <mxGeometry x="449.5" y="371" width="21.5" height="21.5" as="geometry" />
        </mxCell>
        <mxCell id="OTa4afvTashq3EoKjt3z-20" value="" style="sketch=0;outlineConnect=0;fontColor=#232F3E;gradientColor=none;fillColor=#232F3D;strokeColor=none;dashed=0;verticalLabelPosition=bottom;verticalAlign=top;align=center;html=1;fontSize=12;fontStyle=0;aspect=fixed;pointerEvents=1;shape=mxgraph.aws4.user;" vertex="1" parent="1">
          <mxGeometry x="474" y="371" width="21.5" height="21.5" as="geometry" />
        </mxCell>
        <mxCell id="OTa4afvTashq3EoKjt3z-22" value="" style="sketch=0;outlineConnect=0;fontColor=#232F3E;gradientColor=none;fillColor=#232F3D;strokeColor=none;dashed=0;verticalLabelPosition=bottom;verticalAlign=top;align=center;html=1;fontSize=12;fontStyle=0;aspect=fixed;pointerEvents=1;shape=mxgraph.aws4.user;" vertex="1" parent="1">
          <mxGeometry x="425.46" y="442.25" width="21.5" height="21.5" as="geometry" />
        </mxCell>
        <mxCell id="OTa4afvTashq3EoKjt3z-25" value="" style="sketch=0;outlineConnect=0;fontColor=#232F3E;gradientColor=none;fillColor=#232F3D;strokeColor=none;dashed=0;verticalLabelPosition=bottom;verticalAlign=top;align=center;html=1;fontSize=12;fontStyle=0;aspect=fixed;pointerEvents=1;shape=mxgraph.aws4.user;" vertex="1" parent="1">
          <mxGeometry x="425.46" y="512" width="21.5" height="21.5" as="geometry" />
        </mxCell>
        <mxCell id="OTa4afvTashq3EoKjt3z-26" value="" style="sketch=0;outlineConnect=0;fontColor=#232F3E;gradientColor=none;fillColor=#232F3D;strokeColor=none;dashed=0;verticalLabelPosition=bottom;verticalAlign=top;align=center;html=1;fontSize=12;fontStyle=0;aspect=fixed;pointerEvents=1;shape=mxgraph.aws4.user;" vertex="1" parent="1">
          <mxGeometry x="449.5" y="512" width="21.5" height="21.5" as="geometry" />
        </mxCell>
        <mxCell id="OTa4afvTashq3EoKjt3z-35" value="" style="sketch=0;outlineConnect=0;fontColor=#232F3E;gradientColor=none;fillColor=#BF0816;strokeColor=none;dashed=0;verticalLabelPosition=bottom;verticalAlign=top;align=center;html=1;fontSize=12;fontStyle=0;aspect=fixed;pointerEvents=1;shape=mxgraph.aws4.organizations_account;" vertex="1" parent="1">
          <mxGeometry x="589" y="368.75" width="28.46" height="30" as="geometry" />
        </mxCell>
        <mxCell id="OTa4afvTashq3EoKjt3z-36" value="" style="sketch=0;outlineConnect=0;fontColor=#232F3E;gradientColor=none;fillColor=#232F3D;strokeColor=none;dashed=0;verticalLabelPosition=bottom;verticalAlign=top;align=center;html=1;fontSize=12;fontStyle=0;aspect=fixed;pointerEvents=1;shape=mxgraph.aws4.user;" vertex="1" parent="1">
          <mxGeometry x="624.46" y="369.75" width="21.5" height="21.5" as="geometry" />
        </mxCell>
        <mxCell id="OTa4afvTashq3EoKjt3z-37" value="" style="sketch=0;outlineConnect=0;fontColor=#232F3E;gradientColor=none;fillColor=#232F3D;strokeColor=none;dashed=0;verticalLabelPosition=bottom;verticalAlign=top;align=center;html=1;fontSize=12;fontStyle=0;aspect=fixed;pointerEvents=1;shape=mxgraph.aws4.user;" vertex="1" parent="1">
          <mxGeometry x="648.5" y="369.75" width="21.5" height="21.5" as="geometry" />
        </mxCell>
        <mxCell id="OTa4afvTashq3EoKjt3z-38" value="" style="sketch=0;outlineConnect=0;fontColor=#232F3E;gradientColor=none;fillColor=#232F3D;strokeColor=none;dashed=0;verticalLabelPosition=bottom;verticalAlign=top;align=center;html=1;fontSize=12;fontStyle=0;aspect=fixed;pointerEvents=1;shape=mxgraph.aws4.user;" vertex="1" parent="1">
          <mxGeometry x="673" y="369.75" width="21.5" height="21.5" as="geometry" />
        </mxCell>
        <mxCell id="OTa4afvTashq3EoKjt3z-39" value="" style="sketch=0;outlineConnect=0;fontColor=#232F3E;gradientColor=none;fillColor=#BF0816;strokeColor=none;dashed=0;verticalLabelPosition=bottom;verticalAlign=top;align=center;html=1;fontSize=12;fontStyle=0;aspect=fixed;pointerEvents=1;shape=mxgraph.aws4.organizations_account;" vertex="1" parent="1">
          <mxGeometry x="589" y="440" width="28.46" height="30" as="geometry" />
        </mxCell>
        <mxCell id="OTa4afvTashq3EoKjt3z-40" value="" style="sketch=0;outlineConnect=0;fontColor=#232F3E;gradientColor=none;fillColor=#232F3D;strokeColor=none;dashed=0;verticalLabelPosition=bottom;verticalAlign=top;align=center;html=1;fontSize=12;fontStyle=0;aspect=fixed;pointerEvents=1;shape=mxgraph.aws4.user;" vertex="1" parent="1">
          <mxGeometry x="624.46" y="441" width="21.5" height="21.5" as="geometry" />
        </mxCell>
        <mxCell id="OTa4afvTashq3EoKjt3z-41" value="" style="sketch=0;outlineConnect=0;fontColor=#232F3E;gradientColor=none;fillColor=#232F3D;strokeColor=none;dashed=0;verticalLabelPosition=bottom;verticalAlign=top;align=center;html=1;fontSize=12;fontStyle=0;aspect=fixed;pointerEvents=1;shape=mxgraph.aws4.user;" vertex="1" parent="1">
          <mxGeometry x="648.5" y="441" width="21.5" height="21.5" as="geometry" />
        </mxCell>
        <mxCell id="OTa4afvTashq3EoKjt3z-42" value="" style="sketch=0;outlineConnect=0;fontColor=#232F3E;gradientColor=none;fillColor=#232F3D;strokeColor=none;dashed=0;verticalLabelPosition=bottom;verticalAlign=top;align=center;html=1;fontSize=12;fontStyle=0;aspect=fixed;pointerEvents=1;shape=mxgraph.aws4.user;" vertex="1" parent="1">
          <mxGeometry x="673" y="441" width="21.5" height="21.5" as="geometry" />
        </mxCell>
        <mxCell id="OTa4afvTashq3EoKjt3z-43" value="" style="sketch=0;outlineConnect=0;fontColor=#232F3E;gradientColor=none;fillColor=#BF0816;strokeColor=none;dashed=0;verticalLabelPosition=bottom;verticalAlign=top;align=center;html=1;fontSize=12;fontStyle=0;aspect=fixed;pointerEvents=1;shape=mxgraph.aws4.organizations_account;" vertex="1" parent="1">
          <mxGeometry x="589" y="510" width="28.46" height="30" as="geometry" />
        </mxCell>
        <mxCell id="OTa4afvTashq3EoKjt3z-44" value="" style="sketch=0;outlineConnect=0;fontColor=#232F3E;gradientColor=none;fillColor=#232F3D;strokeColor=none;dashed=0;verticalLabelPosition=bottom;verticalAlign=top;align=center;html=1;fontSize=12;fontStyle=0;aspect=fixed;pointerEvents=1;shape=mxgraph.aws4.user;" vertex="1" parent="1">
          <mxGeometry x="624.46" y="511" width="21.5" height="21.5" as="geometry" />
        </mxCell>
        <mxCell id="OTa4afvTashq3EoKjt3z-45" value="" style="sketch=0;outlineConnect=0;fontColor=#232F3E;gradientColor=none;fillColor=#232F3D;strokeColor=none;dashed=0;verticalLabelPosition=bottom;verticalAlign=top;align=center;html=1;fontSize=12;fontStyle=0;aspect=fixed;pointerEvents=1;shape=mxgraph.aws4.user;" vertex="1" parent="1">
          <mxGeometry x="648.5" y="511" width="21.5" height="21.5" as="geometry" />
        </mxCell>
        <mxCell id="OTa4afvTashq3EoKjt3z-46" value="" style="sketch=0;outlineConnect=0;fontColor=#232F3E;gradientColor=none;fillColor=#232F3D;strokeColor=none;dashed=0;verticalLabelPosition=bottom;verticalAlign=top;align=center;html=1;fontSize=12;fontStyle=0;aspect=fixed;pointerEvents=1;shape=mxgraph.aws4.user;" vertex="1" parent="1">
          <mxGeometry x="673" y="511" width="21.5" height="21.5" as="geometry" />
        </mxCell>
        <mxCell id="OTa4afvTashq3EoKjt3z-56" style="edgeStyle=orthogonalEdgeStyle;rounded=0;orthogonalLoop=1;jettySize=auto;html=1;entryX=1;entryY=0.25;entryDx=0;entryDy=0;" edge="1" parent="1" source="OTa4afvTashq3EoKjt3z-4" target="OTa4afvTashq3EoKjt3z-7">
          <mxGeometry relative="1" as="geometry" />
        </mxCell>
        <mxCell id="OTa4afvTashq3EoKjt3z-57" style="edgeStyle=orthogonalEdgeStyle;rounded=0;orthogonalLoop=1;jettySize=auto;html=1;" edge="1" parent="1" source="OTa4afvTashq3EoKjt3z-4" target="OTa4afvTashq3EoKjt3z-8">
          <mxGeometry relative="1" as="geometry">
            <Array as="points">
              <mxPoint x="550" y="460" />
            </Array>
          </mxGeometry>
        </mxCell>
      </root>
    </mxGraphModel>
  </diagram>
</mxfile>
